<?xml version="1.0" encoding="UTF-8"?><svg xmlns="http://www.w3.org/2000/svg" xmlns:xlink="http://www.w3.org/1999/xlink" fill-opacity="1" color-rendering="auto" color-interpolation="auto" text-rendering="auto" stroke="black" stroke-linecap="square" width="480" stroke-miterlimit="10" shape-rendering="auto" stroke-opacity="1" fill="black" stroke-dasharray="none" font-weight="normal" stroke-width="1" height="1021" font-family="'Dialog'" font-style="normal" stroke-linejoin="miter" font-size="12px" stroke-dashoffset="0" image-rendering="auto">
  <!--Generated by ySVG 2.5-->
  <defs id="genericDefs"/>
  <g>
    <defs id="defs1">
      <clipPath clipPathUnits="userSpaceOnUse" id="clipPath1">
        <path d="M0 0 L480 0 L480 1021 L0 1021 L0 0 Z"/>
      </clipPath>
      <clipPath clipPathUnits="userSpaceOnUse" id="clipPath2">
        <path d="M1409 263 L1889 263 L1889 1284 L1409 1284 L1409 263 Z"/>
      </clipPath>
    </defs>
    <g fill="white" text-rendering="geometricPrecision" shape-rendering="geometricPrecision" transform="translate(-1409,-263)" stroke="white">
      <rect x="1409" width="480" height="1021" y="263" clip-path="url(#clipPath2)" stroke="none"/>
    </g>
    <g fill="rgb(255,106,106)" text-rendering="geometricPrecision" shape-rendering="geometricPrecision" transform="matrix(1,0,0,1,-1409,-263)" stroke="rgb(255,106,106)">
      <rect x="1424" y="938.875" clip-path="url(#clipPath2)" width="450" rx="4" ry="4" height="66" stroke="none"/>
    </g>
    <g stroke-linecap="butt" transform="matrix(1,0,0,1,-1409,-263)" fill="rgb(48,48,48)" text-rendering="geometricPrecision" shape-rendering="geometricPrecision" stroke="rgb(48,48,48)" stroke-width="2" stroke-miterlimit="1.45">
      <rect x="1424" y="938.875" clip-path="url(#clipPath2)" fill="none" width="450" rx="4" ry="4" height="66"/>
      <text x="1434.4994" font-size="22px" y="979.63" clip-path="url(#clipPath2)" font-family="'Iosevka'" stroke="none" stroke-width="1" xml:space="preserve">Create a python unittest next to module</text>
    </g>
    <g fill="rgb(255,160,130)" text-rendering="geometricPrecision" shape-rendering="geometricPrecision" transform="matrix(1,0,0,1,-1409,-263)" stroke="rgb(255,160,130)">
      <rect x="1499" y="806.875" clip-path="url(#clipPath2)" width="300" rx="4" ry="4" height="66" stroke="none"/>
    </g>
    <g stroke-linecap="butt" transform="matrix(1,0,0,1,-1409,-263)" fill="rgb(48,48,48)" text-rendering="geometricPrecision" shape-rendering="geometricPrecision" stroke="rgb(48,48,48)" stroke-width="2" stroke-miterlimit="1.45">
      <rect x="1499" y="806.875" clip-path="url(#clipPath2)" fill="none" width="300" rx="4" ry="4" height="66"/>
      <text x="1538.9998" font-size="22px" y="847.63" clip-path="url(#clipPath2)" font-family="'Iosevka'" stroke="none" stroke-width="1" xml:space="preserve">CMake generate/build</text>
    </g>
    <g fill="rgb(103,152,115)" text-rendering="geometricPrecision" shape-rendering="geometricPrecision" transform="matrix(1,0,0,1,-1409,-263)" stroke="rgb(103,152,115)">
      <rect x="1499" y="674.875" clip-path="url(#clipPath2)" width="300" rx="4" ry="4" height="66" stroke="none"/>
    </g>
    <g stroke-linecap="butt" transform="matrix(1,0,0,1,-1409,-263)" fill="rgb(48,48,48)" text-rendering="geometricPrecision" shape-rendering="geometricPrecision" stroke="rgb(48,48,48)" stroke-width="2" stroke-miterlimit="1.45">
      <rect x="1499" y="674.875" clip-path="url(#clipPath2)" fill="none" width="300" rx="4" ry="4" height="66"/>
      <text x="1516.9996" font-size="22px" y="715.63" clip-path="url(#clipPath2)" font-family="'Iosevka'" stroke="none" stroke-width="1" xml:space="preserve">Create a pybind11 module</text>
    </g>
    <g fill="rgb(255,192,172)" text-rendering="geometricPrecision" shape-rendering="geometricPrecision" transform="matrix(1,0,0,1,-1409,-263)" stroke="rgb(255,192,172)">
      <rect x="1499" y="542.875" clip-path="url(#clipPath2)" width="300" rx="4" ry="4" height="66" stroke="none"/>
    </g>
    <g stroke-linecap="butt" transform="matrix(1,0,0,1,-1409,-263)" fill="rgb(48,48,48)" text-rendering="geometricPrecision" shape-rendering="geometricPrecision" stroke="rgb(48,48,48)" stroke-width="2" stroke-miterlimit="1.45">
      <rect x="1499" y="542.875" clip-path="url(#clipPath2)" fill="none" width="300" rx="4" ry="4" height="66"/>
      <text x="1516.9996" font-size="22px" y="583.63" clip-path="url(#clipPath2)" font-family="'Iosevka'" stroke="none" stroke-width="1" xml:space="preserve">Parse some file in stage</text>
    </g>
    <g fill="rgb(255,210,195)" text-rendering="geometricPrecision" shape-rendering="geometricPrecision" transform="matrix(1,0,0,1,-1409,-263)" stroke="rgb(255,210,195)">
      <rect x="1524" y="410.875" clip-path="url(#clipPath2)" width="250" rx="4" ry="4" height="66" stroke="none"/>
    </g>
    <g stroke-linecap="butt" transform="matrix(1,0,0,1,-1409,-263)" fill="rgb(48,48,48)" text-rendering="geometricPrecision" shape-rendering="geometricPrecision" stroke="rgb(48,48,48)" stroke-width="2" stroke-miterlimit="1.45">
      <rect x="1524" y="410.875" clip-path="url(#clipPath2)" fill="none" width="250" rx="4" ry="4" height="66"/>
      <text x="1566.4998" font-size="22px" y="451.63" clip-path="url(#clipPath2)" font-family="'Iosevka'" stroke="none" stroke-width="1" xml:space="preserve">Configure stage</text>
    </g>
    <g fill="rgb(255,106,106)" text-rendering="geometricPrecision" shape-rendering="geometricPrecision" transform="matrix(1,0,0,1,-1409,-263)" stroke="rgb(255,106,106)">
      <rect x="1499" y="1070.875" clip-path="url(#clipPath2)" width="300" rx="4" ry="4" height="66" stroke="none"/>
    </g>
    <g stroke-linecap="butt" transform="matrix(1,0,0,1,-1409,-263)" fill="rgb(48,48,48)" text-rendering="geometricPrecision" shape-rendering="geometricPrecision" stroke="rgb(48,48,48)" stroke-width="2" stroke-miterlimit="1.45">
      <rect x="1499" y="1070.875" clip-path="url(#clipPath2)" fill="none" width="300" rx="4" ry="4" height="66"/>
      <text x="1533.4996" font-size="22px" y="1111.63" clip-path="url(#clipPath2)" font-family="'Iosevka'" stroke="none" stroke-width="1" xml:space="preserve">Run python test suite</text>
    </g>
    <g fill="rgb(255,210,195)" text-rendering="geometricPrecision" shape-rendering="geometricPrecision" transform="matrix(1,0,0,1,-1409,-263)" stroke="rgb(255,210,195)">
      <rect x="1574" y="278.875" clip-path="url(#clipPath2)" width="150" rx="4" ry="4" height="66" stroke="none"/>
    </g>
    <g stroke-linecap="butt" transform="matrix(1,0,0,1,-1409,-263)" fill="rgb(48,48,48)" text-rendering="geometricPrecision" shape-rendering="geometricPrecision" stroke="rgb(48,48,48)" stroke-width="2" stroke-miterlimit="1.45">
      <rect x="1574" y="278.875" clip-path="url(#clipPath2)" fill="none" width="150" rx="4" ry="4" height="66"/>
      <text x="1621.4999" font-size="22px" y="319.63" clip-path="url(#clipPath2)" font-family="'Iosevka'" stroke="none" stroke-width="1" xml:space="preserve">Stage</text>
    </g>
    <g fill="rgb(255,106,106)" text-rendering="geometricPrecision" shape-rendering="geometricPrecision" transform="matrix(1,0,0,1,-1409,-263)" stroke="rgb(255,106,106)">
      <rect x="1524" y="1202.875" clip-path="url(#clipPath2)" width="250" rx="4" ry="4" height="66" stroke="none"/>
    </g>
    <g stroke-linecap="butt" transform="matrix(1,0,0,1,-1409,-263)" fill="rgb(48,48,48)" text-rendering="geometricPrecision" shape-rendering="geometricPrecision" stroke="rgb(48,48,48)" stroke-width="2" stroke-miterlimit="1.45">
      <rect x="1524" y="1202.875" clip-path="url(#clipPath2)" fill="none" width="250" rx="4" ry="4" height="66"/>
      <text x="1560.9998" font-size="22px" y="1243.63" clip-path="url(#clipPath2)" font-family="'Iosevka'" stroke="none" stroke-width="1" xml:space="preserve">Check error code</text>
      <path fill="none" d="M1649 872.8428 L1649 926.4731" clip-path="url(#clipPath2)" stroke="black"/>
      <path fill="black" d="M1649 938.8481 L1655.75 925.3481 L1642.25 925.3481 Z" clip-path="url(#clipPath2)" stroke="none"/>
      <path fill="none" d="M1649 740.8428 L1649 794.4731" clip-path="url(#clipPath2)" stroke="black"/>
      <path fill="black" d="M1649 806.8481 L1655.75 793.3481 L1642.25 793.3481 Z" clip-path="url(#clipPath2)" stroke="none"/>
      <path fill="none" d="M1649 608.8428 L1649 662.4731" clip-path="url(#clipPath2)" stroke="black"/>
      <path fill="black" d="M1649 674.8481 L1655.75 661.3481 L1642.25 661.3481 Z" clip-path="url(#clipPath2)" stroke="none"/>
      <path fill="none" d="M1649 476.8428 L1649 530.4731" clip-path="url(#clipPath2)" stroke="black"/>
      <path fill="black" d="M1649 542.8481 L1655.75 529.3481 L1642.25 529.3481 Z" clip-path="url(#clipPath2)" stroke="none"/>
      <path fill="none" d="M1649 1004.8428 L1649 1058.4731" clip-path="url(#clipPath2)" stroke="black"/>
      <path fill="black" d="M1649 1070.8481 L1655.75 1057.3481 L1642.25 1057.3481 Z" clip-path="url(#clipPath2)" stroke="none"/>
      <path fill="none" d="M1649 344.8428 L1649 398.4731" clip-path="url(#clipPath2)" stroke="black"/>
      <path fill="black" d="M1649 410.8481 L1655.75 397.3481 L1642.25 397.3481 Z" clip-path="url(#clipPath2)" stroke="none"/>
      <path fill="none" d="M1649 1136.8428 L1649 1190.4731" clip-path="url(#clipPath2)" stroke="black"/>
      <path fill="black" d="M1649 1202.8481 L1655.75 1189.3481 L1642.25 1189.3481 Z" clip-path="url(#clipPath2)" stroke="none"/>
    </g>
  </g>
</svg>
